<?xml version="1.0" standalone="no"?>
<!DOCTYPE svg PUBLIC "-//W3C//DTD SVG 20010904//EN"
 "http://www.w3.org/TR/2001/REC-SVG-20010904/DTD/svg10.dtd">
<svg version="1.0" xmlns="http://www.w3.org/2000/svg"
 width="4784.000000pt" height="4784.000000pt" viewBox="0 0 4784.000000 4784.000000"
 preserveAspectRatio="xMidYMid meet">
<metadata>
Created by potrace 1.14, written by Peter Selinger 2001-2017
</metadata>
<g transform="translate(0.000000,4784.000000) scale(0.100000,-0.100000)"
fill="#000000" stroke="none">
<path d="M3690 27632 l0 -928 920 0 c633 0 920 3 923 10 2 6 3 423 3 926 l-1
915 -922 3 -923 2 0 -928z"/>
<path d="M45966 26803 c-1 -1 -49 -5 -106 -9 -144 -10 -165 -12 -165 -14 0 -2
-11 -4 -25 -5 -34 -3 -110 -14 -140 -20 -83 -16 -216 -46 -253 -56 -23 -7 -45
-13 -49 -15 -5 -1 -9 -2 -10 -4 -2 -1 -10 -3 -18 -5 -17 -3 -135 -43 -165 -54
-108 -44 -285 -126 -285 -133 0 -4 -3 -7 -7 -6 -11 2 -50 -17 -98 -47 -22 -14
-51 -31 -65 -38 -14 -6 -34 -20 -44 -29 -11 -10 -23 -18 -26 -18 -6 0 -22 -12
-67 -50 -7 -5 -15 -10 -19 -10 -7 0 -150 -115 -197 -159 -55 -51 -206 -207
-229 -235 -12 -16 -33 -41 -46 -55 -14 -14 -35 -43 -48 -63 -14 -21 -29 -38
-34 -38 -6 0 -10 -5 -10 -10 0 -12 -81 -133 -92 -138 -5 -2 -8 -10 -8 -17 0
-8 -6 -20 -13 -27 -7 -7 -31 -47 -52 -88 -22 -41 -45 -81 -52 -88 -7 -7 -13
-17 -13 -22 0 -4 -17 -46 -38 -92 -36 -78 -66 -147 -68 -158 0 -3 -6 -18 -13
-35 -20 -46 -72 -207 -77 -235 -3 -14 -8 -34 -11 -45 -4 -11 -8 -23 -9 -27 -1
-5 -2 -9 -4 -10 -2 -4 -8 -27 -15 -63 -3 -16 -8 -41 -12 -55 -10 -40 -11 -43
-17 -85 -4 -23 -8 -52 -11 -65 -14 -74 -19 -107 -31 -240 -10 -106 -12 -593
-3 -605 4 -6 8 -20 7 -30 -1 -26 9 -121 17 -165 8 -44 12 -64 20 -120 4 -25
17 -89 31 -143 13 -54 22 -103 19 -108 -4 -5 -2 -9 3 -9 5 0 9 -6 9 -12 0 -7
19 -71 43 -143 63 -193 152 -395 240 -550 13 -22 28 -49 34 -60 27 -47 70
-110 77 -113 5 -2 9 -8 9 -13 0 -14 82 -129 92 -129 4 0 8 -5 8 -11 0 -6 6
-16 13 -23 6 -7 23 -27 37 -46 39 -50 268 -281 330 -331 108 -87 170 -131 270
-193 136 -85 366 -199 426 -211 6 -2 27 -10 45 -18 19 -8 52 -21 74 -27 22 -6
47 -14 55 -18 8 -3 20 -7 25 -8 6 -1 12 -3 15 -4 3 -1 12 -3 20 -5 8 -2 40
-10 70 -18 86 -23 168 -40 250 -51 25 -4 59 -9 75 -12 67 -11 92 -14 132 -15
24 0 45 -4 48 -9 3 -5 18 -5 34 0 15 4 33 5 39 1 14 -8 379 -6 447 3 28 4 73
9 100 11 28 2 50 4 50 5 0 2 11 4 25 5 49 4 117 17 230 42 63 14 122 27 130
28 8 2 16 4 18 5 1 2 5 3 10 5 4 1 14 5 22 8 8 4 24 8 35 10 11 2 27 7 35 10
8 3 42 15 75 26 180 59 492 210 553 268 7 7 17 13 21 13 4 0 17 8 29 18 11 9
36 28 53 42 18 14 44 36 58 49 15 13 34 29 45 36 18 13 18 14 0 47 -11 18 -22
35 -25 38 -3 3 -12 16 -19 30 -7 13 -28 47 -45 75 -18 27 -33 54 -33 59 0 5
-4 12 -10 15 -5 3 -22 28 -38 54 -46 77 -59 98 -103 167 -23 36 -47 76 -53 90
-7 14 -16 30 -21 35 -18 23 -77 120 -77 127 0 18 -29 1 -91 -55 -17 -15 -102
-75 -131 -92 -9 -5 -39 -25 -67 -42 -28 -18 -51 -30 -51 -27 0 3 -12 -3 -27
-14 -36 -24 -164 -83 -183 -84 -3 0 -9 -3 -15 -8 -14 -11 -206 -70 -244 -75
-17 -2 -39 -6 -50 -10 -10 -3 -32 -8 -47 -10 -16 -2 -38 -6 -49 -8 -113 -25
-466 -26 -615 -3 -8 1 -39 6 -68 11 -29 4 -55 12 -58 16 -3 5 -9 7 -14 4 -4
-3 -36 4 -71 16 -35 11 -71 22 -79 24 -8 2 -16 4 -17 5 -2 2 -6 3 -10 5 -39
10 -227 99 -231 108 -2 4 -9 7 -14 7 -10 0 -89 47 -123 72 -67 50 -141 111
-143 119 -2 5 -8 9 -13 9 -8 0 -66 58 -149 150 -18 19 -46 55 -63 80 -17 25
-34 47 -39 48 -4 2 -8 10 -8 18 0 8 -4 14 -10 14 -5 0 -12 11 -16 25 -3 14 -9
25 -13 25 -4 0 -25 35 -47 78 -21 42 -42 79 -46 80 -5 2 -8 11 -8 21 0 9 -4
21 -8 26 -5 6 -14 24 -20 40 -6 17 -17 44 -23 60 -7 17 -13 33 -14 38 -2 4 -4
9 -5 12 -1 3 -3 8 -4 13 -2 4 -11 34 -21 67 -10 33 -20 65 -21 72 -1 6 -7 27
-13 45 -6 18 -12 45 -15 61 -3 15 -7 36 -11 46 -3 11 -8 35 -10 53 -2 18 -6
44 -9 58 -7 34 -15 101 -23 185 -9 91 -8 533 1 610 11 99 14 120 16 120 1 0 3
12 5 28 2 15 9 53 16 85 6 31 13 64 14 72 2 8 4 16 5 18 2 1 3 5 4 10 11 48
60 210 75 247 52 126 102 231 133 284 21 34 38 65 38 68 0 10 68 103 138 188
46 57 192 207 192 198 0 -2 10 6 22 17 12 11 47 37 78 58 30 20 57 40 58 45 2
4 10 7 18 7 8 0 14 5 14 10 0 6 5 10 10 10 6 0 29 12 53 27 23 14 43 26 44 25
2 -1 24 8 50 19 64 28 202 78 228 83 11 2 38 9 60 14 40 11 62 15 145 27 84
13 115 14 280 14 209 -1 260 -3 260 -9 0 -3 19 -6 43 -8 61 -5 102 -9 102 -12
0 -1 16 -3 35 -6 19 -2 42 -7 50 -10 8 -4 22 -8 30 -10 48 -8 83 -18 150 -40
41 -13 84 -29 95 -33 11 -5 50 -23 88 -40 37 -17 71 -31 76 -31 5 0 14 -7 21
-15 7 -9 15 -13 18 -11 3 3 17 -3 32 -14 16 -11 33 -20 39 -20 6 0 11 -4 11
-10 0 -5 7 -10 15 -10 8 0 15 -4 15 -10 0 -5 5 -10 10 -10 6 0 29 -12 51 -26
23 -14 42 -24 43 -22 56 87 93 146 101 160 6 9 78 123 160 253 83 129 155 243
160 252 6 10 21 33 33 51 25 34 24 62 -2 62 -8 0 -16 3 -18 8 -4 10 -74 54
-128 82 -25 12 -48 27 -51 32 -3 5 -13 10 -21 12 -8 1 -27 9 -41 19 -15 9 -28
17 -31 17 -3 0 -44 18 -91 40 -48 22 -128 54 -178 71 -51 17 -101 35 -112 39
-11 5 -31 11 -45 13 -14 3 -50 12 -80 20 -59 16 -146 34 -195 41 -16 3 -39 7
-50 9 -42 10 -174 23 -325 33 -92 6 -390 11 -394 7z"/>
<path d="M1865 26702 c-20 -3 -20 -10 -20 -923 1 -669 4 -922 12 -927 6 -4
420 -7 920 -6 l908 0 3 927 c2 738 0 927 -10 928 -33 3 -1795 4 -1813 1z"/>
<path d="M5539 26705 c-6 0 -4 -1834 2 -1845 6 -13 118 -15 921 -14 l913 0 5
143 c3 79 2 145 -2 147 -4 3 -3 16 2 29 6 15 6 27 0 30 -6 4 -6 14 1 27 7 14
8 23 1 30 -7 7 -7 19 -2 34 6 14 6 26 0 29 -6 4 -6 14 1 26 7 14 7 24 0 33 -6
7 -8 15 -5 19 7 6 7 698 0 704 -3 3 -1 16 4 29 6 14 6 26 0 29 -6 4 -6 14 1
27 7 14 8 23 1 30 -7 7 -7 19 -2 34 6 14 6 26 0 29 -6 4 -6 14 1 26 7 14 7 24
0 33 -6 7 -8 16 -5 19 8 8 7 338 -1 345 -5 5 -485 7 -1836 7z"/>
<path d="M10153 26703 c-6 -2 -9 -5256 -3 -5544 l0 -26 504 0 505 0 -1 27 c-1
15 2 32 6 38 3 6 2 13 -3 16 -6 4 -6 18 -1 36 5 19 5 30 -1 30 -6 0 -8 4 -4
10 9 14 12 121 4 126 -4 2 -4 18 1 35 6 19 6 38 0 49 -5 10 -7 20 -4 22 9 10
9 108 -1 112 -5 3 -4 5 2 5 9 1 10 8 3 25 -5 13 -7 26 -4 29 8 8 11 118 3 123
-4 2 -4 18 1 35 6 20 6 39 -1 50 -5 11 -7 24 -4 29 9 14 12 121 4 126 -4 2 -3
18 1 36 5 17 6 38 1 46 -5 8 -5 28 0 44 4 17 4 26 -2 23 -5 -4 -6 3 0 17 4 13
5 32 1 43 -4 11 -4 30 1 42 5 12 4 25 -1 28 -5 3 -5 18 0 35 5 19 5 30 -1 30
-6 0 -8 4 -4 10 9 15 12 121 3 126 -5 3 -5 11 0 17 5 7 6 21 2 32 -4 11 -4 30
1 42 5 12 4 25 -1 28 -5 3 -5 18 0 35 5 19 5 30 -1 30 -6 0 -8 4 -4 10 9 14
12 121 4 126 -4 2 -3 20 1 39 4 20 4 38 -1 41 -5 3 -7 10 -3 15 5 9 8 120 4
144 -2 6 -2 14 0 20 5 29 4 105 -2 105 -4 0 -3 11 2 25 6 15 6 26 -1 30 -5 4
-7 10 -4 15 9 14 12 121 4 126 -4 2 -4 18 1 35 6 20 6 39 0 50 -16 29 3 33
146 31 139 -2 183 -12 259 -56 38 -23 152 -128 185 -171 47 -61 87 -111 98
-123 6 -7 12 -17 12 -21 0 -4 11 -21 25 -37 14 -16 25 -35 25 -41 0 -7 4 -13
9 -13 5 0 13 -9 16 -20 3 -11 12 -26 18 -32 19 -20 137 -208 137 -219 0 -5 4
-9 8 -9 5 0 15 -12 23 -27 14 -29 73 -123 146 -234 24 -36 43 -70 43 -76 0 -6
4 -13 8 -15 9 -3 92 -125 92 -135 0 -2 17 -30 39 -61 21 -32 78 -118 127 -192
49 -74 97 -143 107 -154 9 -11 17 -23 17 -26 0 -4 11 -20 25 -36 14 -16 25
-32 25 -36 0 -4 6 -13 13 -20 7 -7 26 -31 42 -53 17 -22 35 -46 42 -53 7 -7
32 -38 57 -70 49 -61 219 -232 231 -232 4 0 15 -8 24 -18 50 -54 241 -153 353
-181 122 -31 153 -34 446 -36 255 -2 282 -1 283 14 1 9 2 23 3 31 1 8 -3 21
-8 28 -5 6 -5 12 0 12 5 0 10 174 12 388 l2 387 -92 1 c-51 1 -104 4 -118 7
-118 25 -185 64 -290 169 -58 57 -73 75 -130 148 -19 25 -38 47 -42 48 -5 2
-8 10 -8 18 0 8 -3 14 -8 14 -4 0 -16 16 -26 35 -11 19 -23 35 -28 35 -4 0 -8
4 -8 8 0 8 -98 161 -120 189 -6 7 -15 24 -22 38 -6 14 -14 25 -18 25 -4 0 -11
8 -14 18 -8 20 -23 47 -53 89 -13 17 -23 36 -23 42 0 6 -4 11 -10 11 -5 0 -10
7 -10 15 0 8 -4 15 -10 15 -5 0 -10 5 -10 10 0 6 -5 16 -10 23 -21 24 -90 138
-90 147 0 6 -4 10 -8 10 -5 0 -15 12 -23 28 -7 15 -26 43 -41 63 -15 20 -28
42 -28 48 0 6 -4 11 -10 11 -5 0 -10 5 -10 10 0 6 -17 34 -39 63 -21 29 -41
59 -45 67 -3 8 -20 33 -36 55 -17 22 -47 64 -66 94 -20 30 -42 60 -50 68 -7 8
-21 27 -31 43 -9 17 -21 30 -25 30 -4 0 -8 5 -8 12 0 6 -7 18 -15 27 -8 9 -36
43 -62 76 -26 33 -52 63 -58 67 -5 4 -7 8 -3 8 7 0 -2 10 -121 133 l-73 76 23
33 c19 28 137 185 208 278 11 14 67 88 124 165 58 77 115 150 126 162 12 12
21 25 21 29 0 3 12 20 26 38 14 17 54 69 90 116 35 47 67 90 72 95 4 6 34 46
67 90 66 88 84 111 103 130 6 8 12 16 12 20 0 5 56 81 70 95 3 3 52 68 109
145 57 77 110 145 118 151 7 6 13 15 13 20 0 5 12 23 28 39 15 17 38 47 52 67
14 21 28 38 33 38 4 0 7 5 7 12 0 6 7 18 15 27 15 15 75 93 120 155 11 15 47
63 80 106 33 43 67 88 75 101 8 13 24 32 35 44 11 12 34 41 50 66 17 24 35 49
40 55 6 6 20 24 32 40 12 16 67 89 122 162 55 72 95 133 88 133 -6 1 -259 2
-562 3 l-550 1 -47 -63 c-27 -35 -48 -67 -48 -72 0 -4 -4 -10 -8 -12 -4 -1
-55 -68 -112 -148 -58 -80 -108 -149 -113 -155 -4 -5 -105 -145 -224 -310
-119 -165 -219 -302 -222 -305 -3 -3 -10 -12 -16 -21 -5 -10 -37 -54 -70 -99
-33 -45 -64 -89 -70 -98 -14 -22 -27 -40 -45 -61 -8 -10 -19 -25 -25 -33 -11
-17 -125 -177 -137 -193 -24 -30 -68 -89 -103 -140 -63 -89 -109 -150 -117
-153 -5 -2 -8 -8 -8 -13 0 -8 -137 -198 -170 -236 -5 -7 -10 -17 -10 -23 0 -6
-7 -13 -15 -16 -8 -4 -15 -10 -15 -15 0 -5 -27 -45 -60 -89 l-61 -80 -176 1
-175 0 5 40 c3 21 1 42 -4 45 -6 4 -6 10 -1 17 5 7 6 21 2 32 -4 11 -4 30 1
42 5 12 4 25 -1 28 -5 3 -5 18 0 35 5 19 5 30 -1 30 -6 0 -8 4 -4 10 9 15 12
121 3 126 -4 3 -3 15 2 29 6 16 5 25 -3 29 -9 3 -9 5 0 5 9 1 10 8 3 25 -5 13
-7 26 -4 29 8 8 11 118 3 123 -4 2 -4 18 1 35 6 20 6 39 -1 50 -5 11 -7 24 -4
29 9 14 12 121 4 126 -4 2 -4 18 1 35 6 19 6 38 0 49 -5 10 -7 20 -4 22 9 10
9 108 -1 112 -5 3 -4 5 2 5 9 1 10 8 3 25 -5 13 -7 26 -4 29 8 8 11 118 3 123
-4 2 -4 18 1 35 6 20 6 39 -1 50 -5 11 -7 24 -4 29 9 14 12 121 4 126 -4 2 -3
18 1 36 5 17 6 38 1 46 -5 8 -5 28 0 44 4 17 4 26 -2 23 -5 -4 -6 3 0 17 4 13
5 32 1 43 -4 11 -4 30 1 42 5 12 4 25 -1 28 -5 3 -5 18 0 35 5 19 5 30 -1 30
-6 0 -8 4 -4 10 9 15 12 121 3 126 -5 3 -5 11 0 17 5 7 6 21 2 32 -4 11 -4 30
1 42 5 12 4 25 -1 28 -5 3 -5 18 0 35 5 19 5 30 -1 30 -6 0 -8 4 -4 10 11 17
11 121 1 128 -10 6 -985 11 -1003 5z"/>
<path d="M20598 25305 c-2 -1 -48 -6 -102 -9 -55 -4 -102 -9 -105 -11 -3 -2
-28 -6 -56 -9 -27 -3 -61 -8 -75 -11 -14 -4 -36 -8 -50 -9 -14 -2 -32 -6 -40
-10 -8 -3 -35 -10 -60 -16 -148 -35 -281 -84 -450 -168 -63 -31 -119 -60 -125
-65 -5 -4 -48 -33 -95 -63 -81 -54 -113 -77 -171 -127 -14 -12 -47 -39 -72
-61 l-47 -38 43 -62 c23 -33 47 -65 53 -71 5 -5 23 -29 38 -52 16 -24 33 -43
37 -43 5 0 9 -6 9 -13 0 -7 9 -23 20 -35 11 -12 20 -26 20 -32 0 -5 4 -10 8
-10 4 0 16 -13 25 -30 10 -16 23 -35 30 -42 7 -7 28 -35 47 -63 19 -27 40 -56
47 -63 7 -7 20 -26 30 -42 9 -17 21 -30 25 -30 4 0 8 -5 8 -11 0 -6 6 -17 14
-25 12 -12 18 -10 43 11 56 48 158 127 178 137 11 6 22 14 25 18 8 11 88 56
175 98 113 55 246 103 325 117 31 5 116 18 140 21 76 10 304 4 365 -9 11 -2
38 -8 60 -12 44 -9 53 -11 60 -15 3 -1 8 -3 13 -4 77 -18 203 -129 244 -216
28 -59 50 -131 43 -139 -3 -2 0 -9 5 -16 5 -6 12 -52 15 -101 3 -49 7 -101 9
-116 2 -14 0 -32 -5 -39 -4 -8 -3 -19 2 -25 6 -7 6 -15 1 -18 -4 -2 -5 -30 -2
-61 3 -31 3 -58 -1 -61 -5 -3 -6 -11 -3 -19 5 -11 -17 -14 -118 -14 -128 -1
-294 -8 -363 -16 -140 -15 -149 -16 -237 -30 -18 -3 -46 -7 -63 -10 -55 -8
-245 -51 -310 -70 -5 -1 -14 -4 -20 -5 -25 -6 -213 -72 -240 -84 -194 -87
-448 -236 -462 -273 -3 -7 -10 -13 -15 -13 -6 0 -24 -13 -40 -30 -15 -16 -33
-30 -40 -30 -6 0 -9 -2 -6 -5 3 -3 -9 -20 -26 -38 -26 -27 -64 -72 -104 -122
-20 -25 -92 -152 -92 -163 0 -7 -5 -12 -12 -12 -6 0 -9 -2 -6 -5 3 -3 -10 -42
-28 -87 -18 -45 -31 -85 -28 -90 3 -4 1 -8 -3 -8 -5 0 -9 -8 -10 -17 -1 -17
-7 -53 -18 -100 -16 -71 -22 -248 -11 -358 10 -102 13 -119 50 -260 21 -77
119 -267 162 -314 13 -14 24 -29 24 -32 0 -8 91 -101 144 -146 56 -49 238
-159 254 -153 1 0 15 -6 31 -15 45 -23 126 -49 186 -60 29 -6 64 -13 83 -19
60 -17 342 -25 442 -13 60 8 147 22 160 27 3 1 10 3 15 4 37 7 179 51 215 67
14 6 38 17 53 25 16 8 35 14 42 14 7 0 15 3 17 8 2 4 21 16 43 27 107 53 221
136 326 237 32 32 59 57 60 55 2 -7 9 -48 13 -82 3 -22 8 -51 11 -65 3 -14 8
-47 11 -75 4 -27 8 -53 10 -56 2 -4 6 -24 10 -45 3 -22 8 -42 10 -46 2 -3 218
-6 480 -6 l476 0 -6 39 c-3 22 -8 44 -10 48 -3 4 -7 29 -11 55 -3 27 -7 52
-10 56 -2 3 -7 29 -10 57 -3 27 -8 60 -11 74 -2 13 -7 44 -9 69 -2 25 -7 74
-11 110 -4 36 -8 89 -8 117 -1 29 -3 53 -6 53 -9 0 -11 139 -14 1165 -3 885
-6 1057 -21 1180 -12 101 -36 217 -48 233 -5 7 -7 15 -4 18 3 4 -3 28 -13 55
-11 27 -18 49 -16 49 3 0 -11 32 -30 70 -19 39 -34 74 -34 79 0 22 -128 196
-194 263 -132 133 -353 261 -519 299 -31 8 -57 17 -57 20 0 4 -8 6 -17 4 -10
-1 -28 2 -41 6 -23 9 -120 27 -182 34 -19 2 -57 7 -85 10 -53 6 -402 15 -407
10z m704 -2475 c2 -67 0 -127 -4 -133 -4 -6 -2 -17 3 -23 6 -7 6 -15 1 -18 -4
-2 -5 -30 -2 -61 3 -31 4 -58 0 -60 -3 -2 -3 -30 0 -62 3 -32 4 -104 2 -161
l-3 -103 -89 -87 c-49 -48 -95 -92 -102 -98 -26 -20 -168 -113 -168 -109 0 2
-23 -7 -50 -21 -28 -14 -59 -27 -70 -29 -10 -2 -28 -9 -39 -15 -12 -6 -21 -8
-21 -4 0 3 -6 1 -13 -5 -8 -6 -16 -8 -19 -6 -3 3 -17 1 -31 -4 -66 -25 -254
-31 -349 -12 -32 7 -60 11 -62 9 -2 -2 -14 6 -26 17 -12 11 -24 19 -26 17 -11
-8 -76 34 -119 76 -84 83 -116 180 -110 332 8 201 81 342 235 457 84 63 244
135 352 159 10 2 28 6 41 9 12 2 33 7 47 10 56 12 135 22 230 30 41 3 75 7 77
8 1 2 72 4 157 5 l155 3 3 -121z"/>
<path d="M30085 25298 c-88 -12 -103 -14 -180 -33 -38 -9 -77 -18 -85 -20 -8
-2 -16 -4 -17 -5 -2 -2 -6 -3 -10 -5 -46 -12 -182 -71 -243 -103 -114 -61
-276 -182 -332 -247 -21 -24 -19 -40 -19 170 l-1 155 -474 0 c-308 0 -474 -3
-475 -10 -1 -5 -2 -18 -2 -27 -1 -10 -6 -21 -12 -25 -6 -5 -6 -8 0 -8 12 0 13
-219 2 -237 -5 -7 -5 -13 0 -13 12 0 10 -214 -2 -222 -6 -5 -6 -8 0 -8 12 0
13 -219 2 -237 -5 -7 -5 -13 0 -13 12 0 10 -214 -2 -222 -6 -5 -6 -8 0 -8 12
0 13 -219 2 -237 -5 -7 -5 -13 0 -13 12 0 10 -214 -2 -222 -6 -5 -6 -8 0 -8
12 0 13 -219 2 -237 -5 -7 -5 -13 0 -13 12 0 10 -214 -2 -222 -6 -5 -6 -8 0
-8 12 0 13 -219 2 -237 -5 -7 -5 -13 0 -13 12 0 10 -214 -2 -222 -6 -5 -6 -8
0 -8 12 0 13 -219 2 -237 -5 -7 -5 -13 0 -13 12 0 10 -214 -2 -222 -7 -5 -7
-8 0 -8 6 0 11 -9 11 -20 0 -11 -5 -20 -11 -20 -6 0 -7 -3 0 -8 13 -9 13 -145
0 -154 -7 -5 -7 -8 0 -8 6 0 10 -32 10 -75 0 -43 -4 -75 -10 -75 -7 0 -7 -3 0
-8 13 -9 13 -145 0 -154 -7 -5 -7 -8 0 -8 6 0 10 -32 10 -75 0 -43 -4 -75 -10
-75 -7 0 -7 -3 0 -8 13 -9 13 -145 0 -154 -7 -5 -7 -8 0 -8 6 0 10 -32 10 -75
0 -43 -4 -75 -10 -75 -7 0 -7 -3 0 -8 13 -9 13 -145 0 -154 -7 -5 -7 -8 0 -8
6 0 10 -32 10 -75 0 -43 -4 -75 -10 -75 -7 0 -7 -3 0 -8 13 -9 13 -145 0 -154
-7 -5 -7 -8 0 -8 6 0 10 -32 10 -75 0 -43 -4 -75 -10 -75 -7 0 -7 -3 0 -8 13
-9 13 -145 0 -154 -7 -5 -7 -8 0 -8 6 0 10 -32 10 -75 0 -43 -4 -75 -10 -75
-7 0 -7 -3 0 -8 13 -9 13 -145 0 -154 -7 -5 -7 -8 0 -8 6 0 10 -32 10 -75 0
-43 -4 -75 -10 -75 -7 0 -7 -3 0 -8 13 -9 13 -145 0 -154 -7 -5 -7 -8 0 -8 8
0 13 -212 5 -237 -1 -5 -1 -12 0 -18 8 -33 5 -165 -4 -165 -7 0 -8 -3 -1 -8 6
-4 10 -16 10 -27 0 -20 7 -20 481 -22 l480 -1 0 979 c-1 538 0 979 2 979 2 0
28 -16 58 -35 30 -19 61 -35 69 -35 8 0 15 -4 15 -9 0 -19 264 -119 360 -136
15 -2 79 -14 115 -21 119 -22 415 -22 555 -1 90 15 135 23 148 27 4 2 12 4 17
5 15 3 128 36 145 42 8 4 17 7 20 8 54 19 188 79 211 96 14 10 29 16 33 12 3
-3 6 -1 6 5 0 7 5 12 10 12 14 0 134 79 138 91 2 5 8 9 13 9 6 0 15 5 22 10 7
6 32 27 57 48 53 44 196 186 228 228 57 74 121 164 152 214 46 77 111 200 104
200 -3 0 4 13 16 30 12 16 22 39 23 50 1 11 6 20 11 20 5 0 6 3 3 7 -4 3 -3
11 2 17 4 6 16 36 26 66 10 30 20 60 24 65 3 6 6 15 7 20 1 6 12 44 23 85 27
94 62 264 75 365 3 22 8 58 11 80 2 22 7 95 10 163 3 68 6 126 6 130 1 4 1 9
0 12 -1 3 -4 75 -6 160 -2 85 -6 169 -9 185 -2 17 -8 59 -11 95 -4 36 -8 76
-10 90 -12 80 -15 97 -20 120 -2 14 -7 39 -10 55 -26 132 -89 344 -132 445
-68 160 -176 344 -263 452 -107 131 -286 280 -420 349 -36 19 -68 39 -72 44
-4 6 -8 6 -8 2 0 -5 -12 -1 -27 7 -27 15 -78 37 -98 41 -13 3 -115 35 -135 42
-8 3 -24 7 -35 9 -11 1 -33 5 -50 9 -134 28 -407 40 -530 23z m70 -822 c22 -2
40 -5 40 -6 0 -1 14 -4 30 -6 17 -3 37 -7 45 -11 8 -3 18 -5 23 -5 4 1 7 -3 7
-9 0 -5 4 -8 9 -5 10 7 99 -36 161 -77 55 -37 145 -127 187 -187 49 -73 133
-238 138 -275 1 -5 4 -17 8 -25 7 -18 29 -96 34 -125 2 -11 8 -36 13 -55 5
-19 12 -57 16 -85 3 -27 8 -59 11 -70 17 -76 24 -504 10 -610 -3 -27 -9 -76
-11 -109 -3 -32 -8 -66 -10 -75 -3 -9 -8 -29 -10 -46 -3 -16 -13 -55 -21 -85
-8 -30 -18 -65 -21 -78 -17 -78 -96 -242 -177 -366 -34 -53 -227 -231 -227
-210 0 4 -7 -1 -15 -12 -8 -10 -15 -14 -15 -9 0 6 -3 6 -8 -1 -10 -15 -150
-71 -196 -78 -22 -4 -44 -10 -50 -15 -12 -9 -317 -8 -351 1 -11 3 -40 9 -65
14 -51 9 -59 11 -62 13 -2 2 -12 4 -24 6 -59 12 -294 129 -294 147 0 4 -4 8
-10 8 -10 0 -37 20 -72 53 -10 9 -22 17 -28 17 -5 0 -10 15 -10 33 -1 17 -1
454 -1 970 l0 939 25 31 c70 90 201 205 311 274 39 24 150 76 162 76 7 0 13 4
13 9 0 4 10 8 23 8 13 0 28 5 35 12 7 7 12 9 12 6 0 -4 14 -3 31 2 18 5 55 12
83 15 28 3 52 7 53 9 4 3 149 -2 198 -8z"/>
<path d="M34057 25304 c-1 -1 -40 -5 -87 -8 -47 -4 -92 -9 -100 -11 -8 -2 -35
-6 -60 -9 -25 -4 -58 -9 -75 -12 -16 -4 -39 -8 -50 -9 -11 -2 -20 -4 -20 -5 0
-2 -61 -17 -100 -24 -5 -1 -16 -5 -22 -9 -7 -5 -13 -6 -13 -2 0 3 -8 1 -18 -4
-11 -6 -30 -12 -43 -15 -33 -6 -153 -50 -159 -57 -3 -4 -20 -10 -37 -14 -18
-3 -33 -11 -33 -16 0 -5 -7 -9 -16 -9 -9 0 -40 -13 -69 -29 -29 -16 -56 -27
-59 -24 -3 4 -6 1 -6 -6 0 -7 -4 -9 -10 -6 -5 3 -10 2 -10 -3 0 -5 -12 -15
-27 -23 -43 -21 -108 -63 -111 -72 -2 -4 -8 -5 -13 -1 -5 3 -9 0 -9 -5 0 -6
-6 -11 -14 -11 -8 0 -16 -3 -18 -7 -1 -5 -30 -28 -63 -53 -33 -24 -65 -49 -71
-55 -6 -5 -34 -30 -62 -54 l-51 -44 21 -31 c12 -17 26 -32 30 -34 4 -2 8 -8 8
-12 0 -8 100 -146 146 -203 8 -9 14 -21 14 -25 0 -4 14 -21 30 -39 17 -18 30
-37 30 -42 0 -6 4 -11 9 -11 5 0 11 -6 13 -12 2 -7 39 -61 83 -120 69 -93 82
-105 96 -95 9 7 48 38 86 69 187 151 440 277 631 313 44 8 110 18 137 21 48 6
298 5 325 -1 33 -7 80 -16 105 -20 78 -13 168 -60 227 -118 68 -69 95 -106 90
-129 -1 -5 2 -8 7 -8 5 0 12 -12 17 -27 9 -35 8 -31 19 -78 4 -22 10 -47 12
-55 3 -8 7 -108 10 -221 l5 -206 -143 -2 c-79 -1 -173 -4 -209 -7 -36 -3 -94
-7 -130 -9 -36 -2 -65 -5 -65 -6 0 0 -13 -2 -30 -4 -42 -3 -127 -15 -145 -20
-8 -2 -35 -6 -60 -9 -25 -3 -56 -9 -70 -12 -54 -11 -66 -14 -87 -19 -13 -3
-31 -7 -41 -9 -9 -2 -37 -9 -62 -16 -25 -7 -51 -13 -57 -13 -7 0 -13 -5 -13
-10 0 -6 -3 -8 -6 -5 -10 11 -247 -75 -362 -131 -34 -17 -67 -31 -72 -31 -6 0
-10 -4 -10 -10 0 -5 -5 -10 -10 -10 -14 0 -133 -75 -204 -128 -127 -97 -268
-253 -327 -362 -13 -25 -27 -47 -30 -50 -3 -3 -23 -47 -43 -98 -40 -102 -74
-236 -79 -310 -2 -26 -5 -52 -8 -57 -4 -9 -4 -214 1 -225 1 -3 4 -23 5 -45 2
-22 4 -40 5 -40 1 0 3 -11 6 -25 11 -64 13 -76 17 -95 17 -70 107 -288 126
-305 4 -3 24 -31 45 -62 40 -59 102 -127 172 -188 47 -41 131 -100 143 -100 5
0 14 -7 21 -15 7 -8 16 -12 21 -9 5 3 9 1 9 -3 0 -8 46 -31 75 -38 6 -1 31
-12 55 -23 44 -20 141 -49 190 -57 14 -3 45 -7 70 -11 25 -3 50 -9 55 -13 22
-14 363 -4 445 14 14 3 39 8 55 10 40 7 172 44 204 57 14 6 42 18 61 26 19 8
41 15 48 15 6 0 12 5 12 10 0 6 3 8 6 5 8 -9 222 116 271 158 11 11 31 26 43
34 13 8 51 43 86 77 35 34 65 59 66 55 0 -4 2 -11 3 -17 0 -5 5 -32 9 -60 4
-27 10 -63 12 -80 2 -16 6 -41 9 -55 2 -14 7 -38 10 -55 3 -16 9 -46 13 -65
l8 -35 478 -2 478 -1 -6 31 c-3 18 -10 52 -16 77 -6 25 -12 65 -15 90 -5 44
-11 83 -15 88 -2 1 -3 10 -4 20 -2 21 -16 141 -22 202 -3 25 -8 72 -10 105 -3
33 -7 83 -10 110 -3 28 -6 509 -8 1070 -3 911 -7 1139 -21 1225 -2 14 -7 47
-11 75 -5 40 -29 143 -47 210 -12 42 -41 122 -48 131 -5 6 -6 14 -2 17 3 4 1
7 -5 7 -7 0 -11 3 -10 8 2 8 -33 81 -64 132 -53 86 -155 204 -229 265 -120 99
-343 208 -490 241 -13 3 -28 6 -34 8 -25 7 -124 26 -159 31 -21 3 -41 7 -45 9
-17 11 -512 30 -524 20z m723 -2723 l0 -370 -96 -96 c-53 -52 -99 -95 -103
-95 -4 0 -21 -11 -37 -25 -16 -14 -32 -25 -36 -25 -4 0 -13 -6 -20 -13 -31
-31 -244 -121 -260 -111 -5 3 -8 1 -8 -4 0 -5 -6 -9 -12 -9 -16 0 -74 -10
-108 -19 -14 -3 -74 -5 -135 -4 -137 2 -155 3 -155 12 0 3 -18 9 -40 13 -22 4
-40 11 -40 16 0 4 -7 6 -15 3 -8 -4 -15 -1 -15 5 0 6 -6 11 -12 11 -24 0 -103
72 -140 126 -36 54 -62 120 -60 156 0 10 -3 20 -8 23 -5 3 -6 15 -1 28 5 12 5
31 1 42 -4 11 -5 25 -2 30 4 6 7 26 8 45 1 19 5 46 8 60 4 14 9 35 12 48 4 22
40 101 69 152 25 45 115 131 186 176 37 24 70 44 73 44 3 0 29 11 56 24 28 14
65 28 83 31 18 4 37 10 42 13 6 4 19 8 30 9 11 2 27 6 35 10 8 3 22 7 30 8 8
1 29 5 45 8 17 4 47 9 69 12 21 4 48 9 60 11 11 2 64 7 116 10 52 4 96 7 97 8
1 1 65 3 143 5 l140 2 0 -370z"/>
<path d="M15125 25133 c0 -43 -4 -84 -9 -90 -5 -8 -5 -13 0 -13 11 0 11 -131
0 -148 -4 -7 -4 -12 1 -12 10 0 10 -251 0 -267 -4 -6 -4 -14 0 -16 10 -6 9
-89 -1 -105 -4 -7 -3 -12 1 -12 5 0 7 -44 6 -97 -3 -114 -3 -106 0 -203 1 -41
-2 -81 -7 -87 -5 -8 -5 -13 0 -13 11 0 11 -131 0 -148 -4 -7 -4 -12 1 -12 10
0 10 -251 0 -267 -4 -6 -4 -14 0 -16 10 -6 9 -89 -1 -105 -4 -7 -3 -12 1 -12
5 0 7 -44 6 -97 -3 -114 -3 -106 0 -203 1 -41 -2 -81 -7 -87 -5 -8 -5 -13 0
-13 11 0 11 -131 0 -148 -4 -7 -4 -12 1 -12 10 0 10 -251 0 -267 -4 -6 -4 -14
0 -16 10 -6 9 -89 -1 -105 -4 -7 -3 -12 1 -12 5 0 7 -44 6 -97 -2 -54 -3 -105
-3 -113 0 -8 2 -60 3 -115 1 -55 0 -104 -2 -110 -7 -14 -9 -45 -2 -45 9 0 7
-153 -2 -167 -4 -6 -3 -14 2 -18 10 -5 8 -36 -4 -54 -3 -5 -1 -12 3 -15 10 -6
9 -36 -2 -54 -4 -6 -4 -12 1 -12 4 0 8 -50 8 -110 0 -61 -3 -110 -7 -110 -4 0
-4 -10 0 -22 9 -28 9 -49 -1 -65 -5 -7 -5 -13 0 -13 10 0 10 -151 0 -167 -4
-6 -3 -14 2 -17 10 -7 9 -25 -2 -43 -5 -7 -4 -13 1 -13 5 0 9 -12 8 -27 l-1
-28 905 0 c498 0 950 4 1005 9 55 5 115 9 133 10 17 0 32 3 32 6 0 3 12 6 28
6 67 3 207 31 317 64 39 12 77 23 85 25 36 9 115 41 118 48 2 4 9 7 15 7 35 1
229 115 294 173 85 75 163 160 163 177 0 5 5 10 10 10 6 0 10 7 10 15 0 8 4
15 8 15 10 0 92 168 92 188 0 6 5 12 11 12 5 0 8 4 5 8 -3 5 1 26 9 48 26 77
37 172 37 334 1 121 -9 196 -36 285 -2 6 -7 24 -11 40 -13 47 -95 215 -115
235 -3 3 -18 23 -35 45 -36 49 -122 134 -172 172 -21 15 -40 30 -43 33 -32 32
-260 138 -334 155 -23 5 -34 15 -17 15 10 0 28 7 91 35 3 2 15 6 28 10 12 4
22 11 22 16 0 5 5 9 11 9 20 0 117 71 183 135 111 108 205 274 230 405 3 19 8
46 11 60 26 125 24 363 -4 457 -5 17 -7 34 -4 36 2 3 0 13 -5 24 -6 10 -22 52
-37 93 -26 71 -90 180 -138 237 -83 98 -206 189 -332 247 -44 20 -88 41 -97
46 -10 6 -26 10 -36 10 -10 0 -22 4 -28 9 -5 6 -20 12 -34 15 -14 2 -32 7 -40
10 -8 3 -26 8 -40 10 -14 3 -43 10 -65 15 -73 18 -190 36 -304 48 -31 3 -477
8 -992 10 l-935 4 1 -78z m1345 -664 c206 -1 379 -4 385 -7 5 -3 18 -7 30 -8
218 -25 370 -141 403 -309 8 -43 7 -161 -2 -220 -4 -27 -8 -56 -8 -62 -1 -7
-5 -13 -10 -13 -4 0 -8 -9 -8 -20 0 -11 -5 -20 -12 -20 -6 0 -8 -3 -5 -6 14
-15 -88 -129 -137 -152 -83 -41 -169 -66 -266 -78 -30 -4 -212 -7 -403 -8
-383 -2 -367 -4 -361 59 1 17 3 31 4 33 5 5 6 28 1 36 -8 16 -7 57 1 62 5 3 5
11 1 17 -10 16 -10 88 0 110 4 10 4 17 -2 17 -7 0 -7 9 -1 25 5 13 5 27 1 30
-5 3 -5 21 -1 40 4 19 5 35 1 35 -3 0 -6 23 -6 50 0 28 2 50 5 50 3 0 4 17 2
38 -6 73 -5 210 2 220 3 6 3 13 -2 16 -4 2 -6 21 -4 40 2 20 7 34 11 32 4 -3
175 -6 381 -7z m-280 -1593 c0 -5 6 -4 13 1 6 5 30 8 52 6 22 -2 45 -3 50 -3
6 0 28 1 50 3 22 2 46 -1 53 -6 6 -5 12 -6 12 -1 0 11 91 11 108 0 7 -4 12 -4
12 1 0 4 20 8 45 8 25 0 45 -3 45 -8 0 -4 6 -5 13 0 17 10 77 11 83 1 3 -5 11
-5 17 -1 13 8 87 11 87 3 0 -3 24 -6 53 -6 59 -2 115 -9 169 -22 20 -5 39 -7
42 -4 4 3 6 0 6 -6 0 -7 9 -12 20 -12 21 0 28 -3 90 -36 97 -51 183 -155 214
-261 18 -59 26 -203 13 -220 -6 -9 -5 -13 2 -13 7 0 9 -5 5 -11 -4 -7 -9 -30
-11 -53 -7 -59 -56 -155 -101 -198 -78 -73 -189 -115 -352 -133 -30 -3 -68 -8
-85 -11 -43 -8 -804 -8 -812 -1 -9 10 -10 50 -1 70 5 10 5 17 -1 17 -7 0 -7 9
-1 25 5 13 5 27 1 30 -5 3 -5 21 -1 40 4 19 5 35 1 35 -3 0 -6 23 -6 50 0 28
2 50 5 50 3 0 4 17 2 38 -5 71 -5 213 1 219 4 3 4 10 0 16 -9 15 -9 137 0 137
5 0 5 5 1 11 -9 14 -9 147 -1 156 4 3 2 12 -4 20 -8 9 -8 13 0 13 7 0 8 8 1
24 -5 13 -5 27 0 32 12 12 110 12 110 0z"/>
<path d="M23939 25183 c0 -16 -2 -37 -4 -48 -2 -11 -6 -47 -9 -80 -3 -33 -8
-82 -12 -110 -3 -27 -7 -70 -9 -95 -2 -25 -4 -45 -5 -45 -1 0 -3 -20 -5 -45
-1 -25 -5 -63 -9 -85 -5 -42 -12 -99 -21 -205 -4 -36 -8 -77 -11 -91 -2 -15
-6 -55 -9 -90 -3 -35 -7 -80 -10 -99 -2 -19 -7 -64 -10 -100 -3 -36 -7 -76
-10 -90 -2 -14 -6 -54 -10 -90 -5 -58 -11 -117 -20 -190 -4 -34 -18 -168 -21
-205 -1 -16 -3 -30 -4 -30 -1 0 -3 -18 -4 -40 -4 -43 -13 -131 -22 -205 -3
-25 -7 -65 -9 -90 -1 -25 -3 -45 -4 -45 -2 0 -11 -92 -14 -142 0 -13 -3 -23
-6 -23 -4 0 -6 -15 -7 -33 -1 -31 -8 -83 -18 -137 -3 -14 -7 -41 -10 -60 -3
-19 -13 -66 -22 -105 -29 -125 -35 -147 -41 -165 -4 -8 -7 -19 -7 -25 -1 -5
-10 -35 -21 -65 -10 -30 -20 -57 -20 -60 -18 -70 -118 -244 -182 -316 -53 -60
-63 -62 -243 -61 l-165 1 1 -45 c5 -145 10 -229 14 -229 3 0 5 -24 6 -53 0
-28 4 -99 8 -157 5 -58 10 -130 11 -160 2 -30 6 -80 9 -110 2 -30 8 -102 11
-160 4 -58 9 -132 11 -165 3 -33 6 -91 9 -130 2 -38 6 -99 9 -135 3 -36 8
-105 11 -155 4 -49 8 -115 10 -145 3 -30 8 -100 11 -155 4 -55 8 -111 9 -125
2 -14 3 -31 4 -37 1 -10 74 -13 331 -13 257 0 330 3 331 13 1 6 3 26 4 42 2
17 6 66 9 110 4 44 9 98 11 120 7 59 25 253 30 330 2 22 4 40 4 40 1 0 4 32 6
71 2 39 7 84 10 100 3 16 7 70 10 120 3 49 7 101 10 114 3 13 5 48 6 77 2 50
4 53 28 53 38 1 2442 1 2468 1 14 -1 22 -7 21 -18 0 -16 2 -50 17 -261 2 -34
6 -66 10 -71 3 -5 1 -12 -5 -16 -6 -4 -7 -11 -4 -17 8 -12 11 -47 19 -177 3
-53 8 -127 11 -166 2 -38 7 -104 9 -145 2 -41 4 -75 5 -75 1 0 4 -34 6 -75 3
-41 6 -95 7 -120 l3 -45 332 -3 c262 -2 332 0 333 10 2 32 8 98 13 158 3 36 8
90 11 120 3 30 7 80 10 110 3 30 8 87 11 125 3 39 7 86 9 105 2 19 7 73 11
120 3 47 8 103 10 125 4 40 7 77 18 210 6 65 9 102 21 240 2 28 7 77 10 110 4
33 8 80 9 105 6 78 17 203 22 250 10 82 10 100 0 100 -8 0 -8 3 -1 8 16 11 19
72 3 73 -7 0 -115 1 -241 1 -151 0 -230 4 -234 11 -4 6 -7 747 -7 1647 l-1
1635 -1427 3 -1428 2 -1 -27z m1917 -2014 l1 -1256 -783 0 c-649 0 -784 2
-784 14 0 7 4 13 9 13 5 0 13 10 17 23 4 12 10 24 14 27 19 14 114 229 140
315 6 22 14 47 18 55 3 8 6 20 7 25 1 6 7 30 14 55 15 51 57 247 65 300 17
119 22 163 31 265 3 33 8 80 11 105 3 25 7 68 9 95 2 28 7 77 11 110 3 33 7
74 9 90 2 17 6 64 9 105 4 41 9 93 11 115 6 44 13 119 20 210 3 33 7 76 10 95
2 19 7 69 10 110 7 88 13 145 15 145 0 0 3 34 6 75 3 41 7 84 9 95 2 11 4 32
4 48 l1 27 558 -2 557 -3 1 -1256z"/>
<path d="M36340 24815 l0 -395 600 0 c564 0 600 -1 601 -17 0 -10 1 -33 2 -51
1 -17 -2 -32 -8 -32 -7 0 -7 -3 0 -8 12 -8 14 -152 2 -152 -5 0 -5 -5 -2 -10
10 -15 11 -131 2 -137 -4 -2 -5 -8 -2 -13 10 -16 12 -80 3 -80 -5 0 -5 -7 0
-17 5 -9 6 -29 2 -44 -5 -15 -6 -30 -3 -32 8 -8 9 -117 1 -117 -4 0 -5 -6 -3
-12 9 -24 11 -98 3 -98 -4 0 -5 -6 -2 -14 10 -26 9 -166 -1 -166 -5 0 -4 -5 2
-11 8 -8 8 -20 3 -34 -5 -13 -6 -25 -4 -28 8 -8 10 -117 2 -117 -4 0 -5 -6 -3
-12 9 -24 11 -98 3 -98 -4 0 -5 -7 -1 -17 9 -22 8 -77 -1 -91 -4 -7 -4 -12 1
-12 10 0 9 -52 -1 -68 -4 -7 -4 -12 1 -12 4 0 8 -32 8 -70 0 -39 -4 -70 -10
-70 -5 0 -4 -5 2 -11 8 -8 8 -20 3 -34 -5 -13 -6 -25 -4 -28 8 -8 10 -117 2
-117 -4 0 -5 -6 -3 -12 9 -24 11 -98 3 -98 -4 0 -5 -7 -1 -17 9 -22 8 -77 -1
-91 -4 -7 -4 -12 1 -12 10 0 9 -52 -1 -68 -4 -7 -4 -12 1 -12 4 0 8 -32 8 -70
0 -39 -4 -70 -10 -70 -5 0 -4 -5 2 -11 8 -8 8 -20 3 -34 -5 -13 -6 -25 -4 -28
8 -8 10 -117 2 -117 -4 0 -5 -6 -3 -12 9 -24 11 -98 3 -98 -4 0 -5 -7 -1 -17
9 -22 8 -77 -1 -91 -4 -7 -4 -12 1 -12 10 0 9 -52 -1 -68 -4 -7 -4 -12 1 -12
4 0 8 -32 8 -70 0 -39 -4 -70 -9 -70 -6 0 -5 -5 1 -11 8 -8 8 -20 3 -34 -5
-13 -6 -25 -4 -28 8 -8 10 -117 2 -117 -4 0 -5 -6 -3 -12 9 -25 11 -98 3 -98
-5 0 -5 -7 0 -16 5 -9 7 -25 5 -34 -5 -17 23 -18 483 -16 l488 1 0 1643 0
1642 603 0 c475 0 603 3 604 13 0 6 1 183 1 392 l1 380 -1691 2 -1692 2 0
-394z"/>
<path d="M0 23920 l0 -928 923 2 923 1 -1 -928 c0 -510 2 -928 5 -928 3 -1
418 -2 923 -3 l917 -1 0 930 0 930 -912 -1 c-502 -1 -917 2 -923 6 -7 6 -10
327 -10 928 l1 920 -923 0 -923 0 0 -928z"/>
<path d="M41039 23685 c-4 -1 -3 -1105 1 -1106 3 -1 251 -2 553 -3 l547 -1 0
556 0 555 -550 0 c-302 0 -551 -1 -551 -1z"/>
<path d="M5547 22988 c-9 -5 -12 -251 -12 -929 l0 -923 -915 1 c-651 0 -917
-3 -922 -11 -4 -6 -8 -424 -8 -928 l0 -918 923 0 922 0 -1 913 c0 501 3 919 7
927 6 13 115 15 923 15 867 0 916 1 916 17 2 175 0 462 -4 465 -3 3 -1 16 4
29 6 14 6 26 0 29 -6 4 -6 14 1 27 7 14 8 23 1 30 -7 7 -7 19 -2 34 6 14 6 26
0 29 -6 4 -6 14 1 26 7 14 7 24 0 33 -6 7 -8 15 -5 19 7 7 8 397 0 404 -3 3
-1 15 5 25 7 14 8 23 1 30 -7 7 -7 19 -2 34 6 14 6 26 0 29 -6 4 -6 14 1 27 7
14 8 23 1 30 -7 7 -7 19 -2 34 6 14 5 26 -1 29 -5 4 -6 11 -3 17 8 12 8 377 0
385 -3 3 -1 14 4 24 13 23 3 49 -19 50 -118 5 -1806 2 -1814 -3z"/>
</g>
</svg>
